<svg width="32" height="32" viewBox="0 0 32 32" fill="none" xmlns="http://www.w3.org/2000/svg">
<path fill-rule="evenodd" clip-rule="evenodd" d="M30.4801 6.84953C29.5501 7.26953 28.5301 7.51953 27.5301 7.68953C28.0001 7.60953 28.7101 6.74953 28.9801 6.39953C29.4101 5.86953 29.7601 5.26953 29.9601 4.60953C29.9901 4.55953 30.0001 4.48953 29.9601 4.45953C29.9001 4.42953 29.8501 4.44953 29.8001 4.46953C28.6801 5.06953 27.5301 5.49953 26.3001 5.80953C26.2001 5.83953 26.1201 5.80953 26.0601 5.74953C25.9601 5.63953 25.8601 5.52953 25.7501 5.43953C24.5101 4.37953 22.9201 3.89953 21.3501 4.00953C21.3501 4.00953 21.3601 4.00953 21.3701 4.00953H21.2501C21.2501 4.00953 21.2801 4.00953 21.2901 4.01953C20.4201 4.08953 19.5601 4.33953 18.7701 4.78953C16.4701 6.08953 15.3601 8.63953 15.7401 11.1995C15.7601 11.3395 15.7401 11.3595 15.6201 11.3395C10.8101 10.6195 6.82012 8.89953 3.59012 5.20953C3.45012 5.04953 3.37012 5.04953 3.26012 5.21953C1.84012 7.33953 2.53012 10.7495 4.30012 12.4295C4.54012 12.6495 4.78012 12.8795 5.04012 13.0795C4.94012 13.0995 3.77012 12.9695 2.72012 12.4295C2.58012 12.3395 2.51012 12.3895 2.50012 12.5495C2.49012 12.7795 2.50012 12.9895 2.54012 13.2395C2.81012 15.3895 4.30012 17.3795 6.34012 18.1595C6.58012 18.2595 6.85012 18.3495 7.11012 18.3995C6.65012 18.4995 6.17012 18.5695 4.83012 18.4695C4.66012 18.4395 4.60012 18.5195 4.66012 18.6795C5.66012 21.4095 7.83012 22.2195 9.45012 22.6895C9.67012 22.7295 9.88012 22.7295 10.1001 22.7795C10.0901 22.7995 10.0701 22.7995 10.0601 22.8195C9.52012 23.6395 7.66012 24.2495 6.79012 24.5495C5.21012 25.0995 3.49012 25.3495 1.83012 25.1895C1.56012 25.1495 1.51012 25.1495 1.43012 25.1895C1.36012 25.2395 1.43012 25.2995 1.51012 25.3695C1.85012 25.5895 2.19012 25.7895 2.54012 25.9795C3.60012 26.5395 4.70012 26.9895 5.86012 27.3095C12.5701 29.1595 19.9501 27.2795 24.2601 21.6495C26.7901 18.3495 27.7701 14.2695 27.7701 10.1695C27.7701 9.97953 27.9901 9.87953 28.1301 9.77953C29.0401 9.08953 29.7701 8.26953 30.4501 7.34953C30.6001 7.13953 30.5901 6.95953 30.5901 6.87953V6.84953C30.5901 6.76953 30.5901 6.79953 30.4801 6.84953Z" fill="#F5F5F5"/>
</svg>
